<?xml version="1.0" standalone="no"?>
<!DOCTYPE svg PUBLIC "-//W3C//DTD SVG 20010904//EN"
 "http://www.w3.org/TR/2001/REC-SVG-20010904/DTD/svg10.dtd">
<svg version="1.0" xmlns="http://www.w3.org/2000/svg"
 width="16.000000pt" height="16.000000pt" viewBox="0 0 16.000000 16.000000"
 preserveAspectRatio="xMidYMid meet">
<metadata>
Created by potrace 1.11, written by Peter Selinger 2001-2013
</metadata>
<g transform="translate(0.000000,16.000000) scale(0.001521,-0.001521)"
fill="#000000" stroke="none">
<path d="M720 5260 l0 -4580 4580 0 4580 0 0 3408 c0 1875 3 3936 7 4580 l6
1172 -4586 0 -4587 0 0 -4580z m4330 1854 l0 -265 -730 3 -730 3 0 -2127 0
-2128 -310 0 -310 0 -2 2128 -3 2127 -727 3 -728 2 0 260 0 260 1770 0 1770 0
0 -266z m870 -734 l0 -1000 1148 0 1149 0 6 257 c4 141 7 591 7 1000 l0 743
310 0 310 0 0 -2390 0 -2390 -315 0 -315 0 0 1120 0 1120 -1150 0 -1150 0 0
-1120 0 -1120 -310 0 -310 0 0 2390 0 2390 310 0 310 0 0 -1000z"/>
</g>
</svg>
