<?xml version="1.0"?><svg width="900" height="600" xmlns="http://www.w3.org/2000/svg">
 <g>
  <title>Layer 1</title>
  <g id="svg_1">
   <rect id="svg_2" height="600" width="900" fill="none"/>
   <g id="svg_3">
    <path id="svg_4" d="m569.385742,394.109375c-10.774414,2.885254 -22.271484,3.812988 -32.735352,7.381348c17.722656,-15.195801 16.710938,-38.708496 28.535156,-56.605957c3.766602,-5.067383 6.879883,-10.378906 11.270508,-15.1875c-7.192383,14.427734 -4.073242,33.146484 -12.335938,47.147461c-3.180664,5.561523 -7.729492,10.957031 -12.759766,15.325195c1.643555,-0.061523 3.082031,-1.484375 4.527344,-2.43457c13.420898,-13.392578 30.954102,-17.137695 45.47168,-28.018555c5.81543,-4.633789 11.141602,-10.706055 13.698242,-17.273438c-2.74707,22.219727 -24.852539,43.045898 -45.671875,49.666016l0,0z" fill="none"/>
    <path id="svg_5" d="m617.735352,304.145508c-6.566406,9.34375 -14.509766,18.041992 -20.576172,27.538086c0.676758,-7.518555 1.567383,-16.763672 -1.361328,-23.885742c-5.075195,-15.336914 -9.53418,-30.90918 -10.972656,-47.741211l0.198242,-6.436523c3.819336,17.189453 20.705078,29.005859 19.639648,48.287109c0.386719,4.672852 -1.058594,8.645508 -1.933594,12.754883l0.290039,0.303711l0.760742,-0.852539c2.503906,-9.458008 3.767578,-19.40332 7.661133,-28.227539c5.533203,-12.698242 12.442383,-25.513672 9.626953,-40.845703c8.416016,18.076172 5.866211,42.227539 -3.333008,59.105469l0,0z" fill="none"/>
    <path id="svg_6" d="m607.371094,206.757813c11.072266,15.005371 13.499023,38.917969 5.43457,56.129883c-3.005859,7.293945 -5.128906,15.066406 -6.30957,23.139648c-0.563477,-1.392578 -0.692383,-3.264648 -1.195313,-4.816406c-4.404297,-16.847656 -20.337891,-28.854492 -26.890625,-44.73877c-2.078125,-5.194336 -3.849609,-10.561523 -4.832031,-16.200195c7.001953,12.950195 24.257813,19.63916 28.960938,33.910645c1.926758,3.609375 1.818359,8.119141 3.013672,12c0.250977,0 0.501953,-0.186523 0.501953,-0.441406c-2.070313,-14.701172 -1.438477,-30.087402 0.556641,-44.605957c-0.115234,-7.864258 -0.882813,-15.492676 -5.251953,-21.580078c2.801758,1.632324 4.063477,4.767578 6.011719,7.202637l0,0z" fill="none"/>
    <path id="svg_7" d="m599.564453,203.877441c2.908203,13.148926 -1.339844,25.95459 1.332031,39.22998l-0.099609,0.114258c-7.15332,-14.066406 -22.339844,-20.705078 -32.789063,-31.963379c-6.055664,-6.680664 -8.688477,-14.822754 -10.203125,-23.443848c5.987305,14.43457 22.143555,17.615234 31.418945,29.778809c3.103516,2.804199 4.116211,6.688965 6.117188,9.869141l0.327148,-0.315918c-5.333984,-11.386719 -7.121094,-24.201172 -10.842773,-36.345215c-1.863281,-5.262207 -5.561523,-10.432617 -10.523438,-13.750488c12.175781,2.488281 22.728516,15.199707 25.262695,26.82666l0,0z" fill="none"/>
    <path id="svg_8" d="m567.011719,173.72168c9.169922,8.207031 13.317383,18.833496 15.995117,29.84375l1.514648,3.496582c-13.30957,-9.572266 -25.400391,-22.439941 -33.899414,-36.029785l-10.379883,-10.500977c9.125,3.869141 18.962891,6.178711 26.769531,13.19043l0,0z" fill="none"/>
    <path id="svg_9" d="m356.805664,162.273926c-9.200195,8.06543 -15.581055,18.265625 -22.40625,27.777344c-6.118164,7.575195 -13.944336,12.570313 -20.879883,19.084473c3.744141,-7.761719 3.880859,-17.033203 9.191406,-24.163086c7.556641,-13.183594 21.569336,-17.821777 34.094727,-22.69873l0,0z" fill="none"/>
    <path id="svg_10" d="m306.492188,190.359863c4.474609,-5.5625 10.147461,-9.428223 16.53125,-11.060547c-12.395508,8.515137 -11.588867,23.774902 -15.518555,36.460449c-1.25293,4.690918 -3.428711,9.012695 -4.512695,13.821289l0.31543,0.250977c2.0625,-5.436035 5.6875,-10.572266 10.211914,-15.007813c8.803711,-8.126953 21.827148,-13.191895 26.141602,-25.213867c-0.197266,16.706055 -14.133789,29.839844 -27.46875,39.229004c-5.499023,4.824219 -10.801758,10.322266 -13.830078,16.523926c-0.296875,-4.214844 0.623047,-8.446777 0.323242,-12.961914c-1.450195,-14.583496 -2.503906,-31.229004 7.806641,-42.041504l0,0z" fill="none"/>
    <path id="svg_11" d="m281.412109,240.227539c-0.373047,-14.77832 5.760742,-26.841797 14.404297,-37.853027c0.250977,-0.125488 0.429688,-0.376465 0.75293,-0.315918c-9.514648,14.458496 -1.643555,32.67041 -2.077148,49.110352l-1.254883,16.832031c0.186523,0.12207 0.186523,0.62793 0.62793,0.433594c0.5625,-1.875977 0.68457,-3.880859 1.060547,-5.810547c2.241211,-13.577148 14.032227,-23.210938 24.331055,-32.59375c2.199219,-2.454102 4.143555,-4.945801 5.273438,-7.825684c-0.84082,6.760254 -2.959961,13.578613 -5.764648,19.830566c-8.015625,15.631836 -22.823242,28.458008 -25.52832,46.354492c-1.3125,-17.150391 -12.989258,-29.972656 -11.825195,-48.162109l0,0z" fill="none"/>
    <path id="svg_12" d="m274.213867,261.243164c1.06543,-4.62207 1.879883,-9.405273 3.891602,-13.646484c-3.811523,19.537109 9.329102,33.614258 13.639648,50.548828c1.803711,6.333984 2.245117,13.136719 4.824219,19.080078c0.240234,0.129883 0.449219,-0.121094 0.597656,-0.311523c-6.417969,-17.989258 2.84668,-34.706055 12.15625,-48.791016c2.263672,-3.816406 3.568359,-8.066406 4.694336,-12.453125c0.989258,8.141602 -1.069336,17.517578 -2.251953,25.970703c-2.263672,10.755859 -5.642578,20.956055 -8.583984,31.392578c-1.935547,6.521484 -1.426758,13.878906 -0.432617,20.711914l-0.932617,-0.745117c-6.825195,-12.585938 -20.339844,-22.402344 -24.353516,-36.152344c-3.302734,-10.961914 -5.498047,-23.660156 -3.249023,-35.604492l0,0z" fill="none"/>
    <path id="svg_13" d="m273.597656,299.401367c1.50293,20.708008 23.771484,31.650391 34.09375,48.793945c2.442383,3.507813 4.561523,7.388672 7.825195,10.325195c-0.509766,-2.206055 -2.568359,-4.0625 -3.324219,-6.322266c-3.611328,-7.19043 -4.927734,-15.758789 -4.05957,-24.449219c1,-10.577148 5.436523,-20.392578 3.743164,-31.517578c9.070313,19.556641 6.31543,43.966797 11.386719,65.158203c1.328125,4.634766 4.010742,8.773438 5.768555,13.203125c-18.635742,-12.692383 -44.046875,-24.768555 -52.314453,-48.030273c-3.484375,-8.020508 -3.873047,-17.950195 -3.119141,-27.161133l0,0z" fill="none"/>
    <path id="svg_14" d="m284.729492,346.955078c10.390625,23.505859 36.414063,25.453125 53.862305,39.766602c3.210938,2.845703 6.575195,5.265625 10.200195,6.954102l0.186523,-0.189453c-4.005859,-3.62207 -8.639648,-7.74707 -11.444336,-12.441406c-10.211914,-14.199219 -6.620117,-34.089844 -14.271484,-49.361328c6.952148,8.316406 13.274414,16.960938 17.47168,26.395508c6.243164,15.401367 8.628906,32.796875 23.075195,44.438965c-15.633789,-5.152344 -33.949219,-3.712891 -47.748047,-13.339355c-15.066406,-9.259766 -28.512695,-24.96582 -31.332031,-42.223633l0,0z" fill="none"/>
    <path id="svg_15" d="m311.43457,390.806641c16.660156,18.947754 43.882813,12.625488 66.075195,17.584473c3.134766,0.427734 6.003906,1.683594 9.326172,1.173828c-2.645508,-1.673828 -6.316406,-1.492188 -9.204102,-3.013672c-17.395508,-6.111328 -19.947266,-24.943848 -29.390625,-37.643066c12.064453,8.011719 22.207031,18.817383 33.336914,29.287598c8,7.007813 17.629883,10.242188 27.776367,12.304688c-2.438477,0.890625 -5.634766,0.646484 -8.251953,1.332031c-18.228516,4.482422 -38.480469,11.808594 -57.811523,5.25c-12.567383,-3.957031 -25.533203,-13.894531 -31.856445,-26.275879l0,0z" fill="none"/>
    <path id="svg_16" d="m537.556641,434.973145c-18.773438,7.005859 -38.366211,-0.320313 -53.029297,-11.439453c-5.936523,-3.773438 -11.169922,-9.207031 -18.848633,-8.726563c-2.785156,-0.052734 -5.470703,0.083984 -7.837891,0.767578c14.245117,6.628906 27.477539,15.767578 39.576172,27.455078c-2.039063,2.328125 -4.679688,4.505859 -7.166992,6.513672c-11.65918,-12.5625 -24.571289,-24.654297 -39.02832,-31.716797c-2.831055,0.367188 -5.524414,2.070313 -8.077148,3.441406c-11.769531,7.441406 -23.407227,17.013672 -32.157227,28.732422l-7.518555,-6.208984c12,-12.138672 25.273438,-21.587891 39.793945,-28.337891c-14.268555,-4.519531 -23.582031,7.433594 -34.413086,13.513672c-12.621094,8.8125 -30.772461,12.951172 -46.025391,6.871094c-8.203125,-3.111328 -16.150391,-7.693359 -22.089844,-15.140625c12.003906,8.269531 29.881836,9.136719 43.533203,3.765625c18.318359,-7.945313 37.353516,-18.017578 59.436523,-13.201172c3.446289,0.060547 6.794922,3.492188 10.050781,0.570313c16.413086,-4.261719 34.995117,-1.332031 49.125977,6.169922l14.564453,5.837891c13.537109,5.005859 31.039063,3.621094 42.642578,-4.626953c-5.96582,7.425781 -14.115234,12.746094 -22.53125,15.759766l0,0z" fill="none"/>
    <path id="svg_17" d="m557.674805,415.574707c-21.078125,7.958984 -42.283203,-1.810547 -62.479492,-5.074219l-3.888672,-0.494141l0,-0.123047c9.657227,-2.191406 19.03125,-5.066406 26.717773,-12.005859c11.321289,-10.882324 21.395508,-22.083496 33.967773,-30.658691c-9.323242,11.954102 -10.311523,28.969238 -25.712891,36.654785c-3.811523,2.494141 -8.62207,2.935547 -12.555664,4.824219c5.609375,0.121094 10.745117,-1.888672 16.299805,-2.451172c20.652344,-3.242188 44.27832,0.083984 58.766602,-17.509277c-5.378906,12.259277 -18.849609,22.524902 -31.115234,26.837402l0,0z" fill="none"/>
    <path id="svg_18" d="m595.972656,356.268555c-8.324219,5.448242 -16.761719,10.500977 -24.760742,16.695313l0,-0.760742c12.251953,-20.362305 6.262695,-48.334961 13.811523,-70.744141l2.81543,-7.506836c-1.575195,13.959961 4.488281,25.785156 4.0625,39.792969c-0.425781,8.461914 -3.1875,15.964844 -7.630859,22.72168l0.75293,0c6.00293,-7.883789 10.69043,-16.268555 17.706055,-23.77832c10.889648,-10.500977 21.960938,-21.268555 23.390625,-35.84082c3.698242,24.327148 -9.952148,45.648438 -30.147461,59.420898l0,0z" fill="none"/>
   </g>
   <g id="svg_19">
    <polygon id="svg_20" points="448.1118164,303.2524414 451.8886719,303.2524414      451.8886719,398.074707 448.1118164,398.074707 448.1118164,303.2524414 " fill="none" clip-rule="evenodd" fill-rule="evenodd"/>
    <polygon id="svg_21" points="427.609375,293.9394531 430.2773438,296.6108398      363.1757813,363.6098633 360.5078125,360.9365234 427.609375,293.9394531 " fill="none" clip-rule="evenodd" fill-rule="evenodd"/>
    <polygon id="svg_22" points="421.1953125,274.1860352 421.1894531,277.9624023      326.3671875,277.8491211 326.3710938,274.0722656 421.1953125,274.1860352 " fill="none" clip-rule="evenodd" fill-rule="evenodd"/>
    <polygon id="svg_23" points="430.1977539,255.8979492 427.5258789,258.5673828      360.4853516,191.5078125 363.1567383,188.8383789 430.1977539,255.8979492 " fill="none" clip-rule="evenodd" fill-rule="evenodd"/>
    <polygon id="svg_24" points="451.847168,248.1098633 448.0703125,248.1069336      448.1572266,153.2827148 451.934082,153.2866211 451.847168,248.1098633 " fill="none" clip-rule="evenodd" fill-rule="evenodd"/>
    <polygon id="svg_25" points="470.824707,257.1552734 468.1567383,254.4814453      535.296875,187.5214844 537.9648438,190.1948242 470.824707,257.1552734 " fill="none" clip-rule="evenodd" fill-rule="evenodd"/>
    <polygon id="svg_26" points="478.1474609,278.2592773 478.1435547,274.4829102      572.9648438,274.3637695 572.9716797,278.1401367 478.1474609,278.2592773 " fill="none" clip-rule="evenodd" fill-rule="evenodd"/>
    <polygon id="svg_27" points="467.1992188,297.559082 469.8671875,294.8852539      536.9736328,361.8789063 534.3056641,364.5522461 467.1992188,297.559082 " fill="none" clip-rule="evenodd" fill-rule="evenodd"/>
    <path id="svg_28" d="m485.363281,181.183594c52.226563,19.521973 78.768555,77.75 59.246094,129.973633s-77.750488,78.766113 -129.972168,59.243652c-52.225586,-19.520996 -78.76416,-77.748047 -59.245605,-129.972656c19.522949,-52.224609 77.75,-78.765137 129.97168,-59.244629l0,0zm-1.52832,4.094727c49.962891,18.676758 75.355469,74.384766 56.680664,124.348145c-18.675781,49.964844 -74.387207,75.356445 -124.349609,56.679688c-49.962891,-18.674805 -75.354492,-74.383789 -56.679688,-124.347656c18.676758,-49.963379 74.385742,-75.355957 124.348633,-56.680176l0,0z" fill="none" clip-rule="evenodd" fill-rule="evenodd"/>
    <path id="svg_29" d="m477.261719,202.861328c40.260742,15.048828 60.717773,59.935059 45.671875,100.193848c-15.049805,40.258301 -59.938477,60.717773 -100.194336,45.669922c-40.256348,-15.047852 -60.717773,-59.936035 -45.669922,-100.194336c15.047852,-40.257813 59.936035,-60.717773 100.192383,-45.669434l0,0zm-1.536133,4.118164c37.982422,14.198242 57.289063,56.552246 43.09082,94.537598c-14.198242,37.98584 -56.555176,57.291016 -94.537109,43.09082c-37.98584,-14.198242 -57.292969,-56.552734 -43.092773,-94.537598c14.200195,-37.98584 56.552734,-57.291016 94.539063,-43.09082l0,0z" fill="none" clip-rule="evenodd" fill-rule="evenodd"/>
    <path id="svg_30" d="m469.401855,223.88623c28.654785,10.710449 43.216309,42.657227 32.507324,71.30957c-10.713867,28.651855 -42.660156,43.215332 -71.310547,32.503906c-28.653809,-10.710938 -43.215332,-42.657227 -32.503906,-71.309082c10.710938,-28.651855 42.657227,-43.214355 71.307129,-32.504395l0,0zm-1.407715,3.768555c26.573242,9.933105 40.079102,39.560547 30.145508,66.133301c-9.93457,26.572266 -39.560547,40.076172 -66.133301,30.143066c-26.572266,-9.931641 -40.076172,-39.560059 -30.144531,-66.132813c9.933105,-26.571289 39.55957,-40.076172 66.132324,-30.143555l0,0z" fill="none" clip-rule="evenodd" fill-rule="evenodd"/>
    <path id="svg_31" d="m460.562012,247.536621c15.598145,5.830566 23.525879,23.220703 17.694824,38.819336c-5.831055,15.596191 -23.219727,23.524414 -38.818359,17.692871c-15.598145,-5.82959 -23.524414,-23.219727 -17.694824,-38.818359c5.831543,-15.597168 23.223633,-23.524414 38.818359,-17.693848l0,0zm-1.524902,4.07666c13.350586,4.989258 20.131836,19.871582 15.144531,33.219238c-4.991699,13.347168 -19.871094,20.129883 -33.217773,15.140625c-13.349121,-4.989258 -20.131836,-19.870605 -15.144531,-33.21875c4.991211,-13.347656 19.874512,-20.130859 33.217773,-15.141113l0,0z" fill="none" clip-rule="evenodd" fill-rule="evenodd"/>
    <path id="svg_32" d="m508.913086,166.207031c61.084961,33.615723 84.270508,109.993164 51.749023,170.482422c-32.517578,60.491699 -108.489746,82.304199 -169.574219,48.688965c-61.083984,-33.614746 -84.27002,-109.993164 -51.748535,-170.483398c32.519531,-60.491211 108.48877,-82.303223 169.57373,-48.687988l0,0zm-2.137695,3.97998c58.867188,32.394531 81.208984,105.99707 49.868164,164.29248c-31.336914,58.293457 -104.550781,79.314941 -163.415527,46.919922c-58.868652,-32.396484 -81.210449,-105.999023 -49.870117,-164.293457c31.336914,-58.294434 104.549805,-79.314453 163.41748,-46.918945l0,0z" fill="none" clip-rule="evenodd" fill-rule="evenodd"/>
    <path id="svg_33" d="m523.736328,334.399902c0.071289,0.648926 -0.151367,2.246094 0.151367,2.612793c0.313477,0.497559 1.483398,0.391602 1.990234,0.21582c1.384766,-0.520508 2.762695,-2.350098 3.402344,-3.72168c0.450195,-0.696289 0.75293,-1.511719 0.654297,-2.423828l-0.96875,-2.93457c-0.242188,-1.029297 -0.567383,-2.838379 -1.665039,-3.265625c0.102539,-0.272461 0.450195,-0.698242 0.40918,-1.088379c-0.253906,-1.159668 -2.191406,-0.85498 -2.883789,-0.003418c-0.348633,0.425781 -0.25,1.335449 -0.325195,1.867188c-0.019531,1.054199 -0.314453,3.182617 -0.734375,4.140137c-0.419922,0.955566 -1.59668,2.244141 -1.612305,3.297852c0.083008,0.779297 0.919922,1.22998 1.582031,1.303711l0,0zm-64.47998,-8.141602l0.344238,0.756836c0.015137,0.130371 0.17041,0.378418 0.302734,0.367188c0.87793,0.841797 2.10791,-1.108887 0.639648,-1.370117c-0.132324,0.01123 -0.404785,-0.09668 -0.521973,0.04541c-0.257324,0.024414 -0.518555,0.047363 -0.764648,0.200684l0,0zm0.972656,-1.92627c-0.594238,0.577148 -0.810059,0.991699 0.155273,1.430176l-0.155273,-1.430176l0,0zm-15.65918,-11.469727c-0.953613,0.87207 -0.881348,0.342285 -1.369629,0.648926c-0.363281,0.292969 -0.060547,0.660156 -0.393555,1.216309c-0.102539,0.272461 -0.480469,0.4375 -0.450195,0.698242c-0.087402,0.401367 0.329102,0.626465 0.733887,0.721191c0.533691,0.083008 2.092773,-0.055176 2.580566,-0.361328c0.480957,-0.4375 0.291504,-0.946289 0.51123,-1.36084c0.117188,-0.141602 0.348145,-0.425293 0.465332,-0.567383c0.056641,-0.662109 -1.339844,-1.457031 -2.077637,-0.995117l0,0zm37.600098,-4.030273l0.139648,1.299805l-0.151367,1.06543c1.415039,-0.259277 2.286133,-0.730469 3.541992,-1.237793c0.375,-0.164551 1.124023,-0.495605 1.415039,-0.258789c0.416992,0.227051 0.197266,0.63916 0.094727,0.911621c-0.204102,0.542969 -1.013672,1.536621 -1.362305,1.962402c-1.055664,1.144531 -2.614258,1.284668 -3.931641,2.454102c-0.708008,0.720703 -0.896484,1.394043 -1.608398,2.115234c-0.707031,0.71875 -1.214844,0.896973 -1.578125,1.191895c-0.347656,0.425781 -0.056641,0.662109 -0.793945,1.12207l0.419922,-0.955566c-0.401367,-0.09668 -0.923828,-0.049316 -1.226563,-0.417969c-0.169922,-0.376465 -0.211914,-0.768555 -0.125,-1.169434c0.178711,-0.804199 0.34082,-2.921387 0.806641,-3.489258c0.117188,-0.141602 1.12793,-0.495605 1.501953,-0.660156l-0.173828,0.804199c0.389648,-0.03418 1.037109,-0.092773 1.282227,-0.246094c0.636719,-0.188965 1.275391,-1.561035 1.608398,-2.115234l-1.762695,0.683105c0.306641,-0.81543 1.176758,-2.469238 1.90332,-3.05957l0,0zm-34.856445,3.914551c-0.264648,1.20752 0.473145,0.745605 0.919434,1.231934c0.287598,0.236328 0.32959,0.626465 0.371094,1.018066l-1.025391,0.223145l-0.450684,0.696289l-0.579102,0.709473l1.759766,0.499512c-0.881348,0.34082 -1.415039,0.257324 -1.979004,1.097656l2.206055,-0.19873c1.441895,0.001953 2.524414,0.298828 3.882813,-0.480957l-0.287598,-0.236328l0.393555,-1.218262l-0.97998,-0.567871l-0.344727,-0.756836l-1.649902,-1.95459l-0.54834,-0.213867c0.465332,-0.567383 1.403809,-1.572266 0.063965,-1.844727l-0.662109,-0.071777l0.579102,-0.709473c-0.794922,-0.058594 -1.457031,-0.130859 -2.05127,0.448242c-0.696289,0.849609 -0.715332,1.901855 0.382324,2.329102l0,0zm-0.768066,-16.877441l-0.030273,0.921387l-0.302734,-0.366699l0.037598,1.572266c0.230957,0.900391 1.241211,0.546875 1.472168,0.262695c0.246094,-0.152832 0.317871,-0.686523 0.291504,-0.945801s-0.185547,-0.508789 -0.329102,-0.626465c-0.276367,-0.10791 -0.405273,-0.096191 -0.666016,-0.07373l-0.083496,-0.779297l-0.389648,0.035645l0,0zm-107.033691,8.289551c-0.05127,1.975098 0.46875,1.927734 0.909668,3.59668c0.229004,0.898926 -0.132324,1.193848 0.583008,2.96875c0.344238,0.758789 0.556152,1.526855 1.377441,1.84668c-0.236328,-2.211914 -0.507324,-3.500488 -1.249023,-5.536133c-0.529785,-1.266113 -0.93457,-1.360352 -1.362305,-2.900879l-0.258789,0.024902l0,0zm179.433594,-21.617188c-0.620117,0.317871 -0.839844,0.731934 -0.768555,1.380859c-0.060547,0.664063 0.514648,1.137207 1.150391,0.948242c0.881836,-0.34082 1.033203,-2.588379 -0.381836,-2.329102l0,0zm-122.776855,-0.28418c-0.319824,0.687012 -0.380371,1.349121 0.325195,1.811035c-0.069824,-0.648926 0.119141,-1.324707 -0.325195,-1.811035l0,0zm38.360352,0.632324l0.433105,0.355469c0.953613,-0.874023 1.158203,-1.418945 1.854492,-2.268555c0.578613,-0.709473 0.96875,-0.743652 1.330078,-1.038574c0.230469,-0.28418 0.202148,-0.544922 0.289063,-0.946289c0.20459,-0.544922 0.581055,-0.709473 0.484375,-1.619629c0.045898,-0.79248 -0.470703,-1.928223 -1.365723,-1.716797l-0.200684,-0.638672c-0.389648,0.034668 -1.025391,0.223145 -1.386719,0.517578c-0.361328,0.295898 -0.17627,0.804688 -0.652832,1.241699c-0.579102,0.708008 -1.589355,1.061523 -1.835449,1.214844c-0.376465,0.166504 -0.204102,0.544922 -0.813477,0.993652c-0.851563,0.601563 -1.413574,0.257324 -1.918945,0.435059c-0.635742,0.1875 -1.577637,1.191895 -2.054688,1.628906c-0.696289,0.849609 -0.898438,1.394531 -1.189941,2.34082c-0.102051,0.270508 -0.319824,0.68457 -0.162598,0.93457c0.156738,0.248047 0.546875,0.211914 0.794434,0.058594c0.505371,-0.175781 1.617676,-0.800293 2.022949,-0.705566c0.387695,-0.036133 0.546387,0.213379 0.820801,0.319824c0.40332,0.094238 0.662598,0.071777 0.936523,0.177734c0.272461,0.10791 0.575195,0.474609 0.862793,0.711426c0.690918,0.331055 1.387207,-0.518555 1.591309,-1.061523c0.102051,-0.272461 0.202637,-0.544922 0.161133,-0.93457l0,0zm0.754883,-10.052734l0.015137,0.130371l-0.145996,-0.118164l0.130859,-0.012207l0,0zm1.150391,0.947754c0.344238,0.757813 1.611816,1.562988 2.331055,2.15625c0.245605,-0.15332 0.361328,-0.29541 0.463379,-0.566895c0.319824,-0.686035 0.179688,-1.987793 -0.512695,-2.319824c-0.416016,-0.225098 -0.92334,-0.047852 -1.297852,0.116699c-0.015137,-0.129883 -0.185547,-0.508301 -0.329102,-0.627441c-1.021973,-0.958984 -2.300781,1.783203 -0.654785,1.241211l0,0zm-5.432129,-1.745117c0.875977,0.84082 0.891113,0.970215 2.060547,0.865234c-0.178223,0.804199 -1.21875,2.080566 -2.070313,1.500488c-0.560059,-0.344238 -0.616699,-0.864746 -0.88916,-0.97168c-0.417969,-0.225098 -0.450195,0.697266 -0.681152,0.980469c-0.552734,0.969238 -1.475586,0.921387 -1.566406,2.505859l0.491699,-0.308594c0.499512,1.006836 1.426758,-0.126465 2.049316,-0.445313c-0.115723,0.14209 -0.348145,0.426758 -0.44873,0.697266c-0.09082,0.402832 0.342773,0.758789 0.719238,0.592285c0.374512,-0.165039 0.824707,-0.862793 1.18457,-1.158203c0.363281,-0.293945 0.491699,-0.305664 0.868164,-0.472168c0.361328,-0.293945 0.838379,-0.730957 1.20166,-1.026367c1.085938,-0.885254 1.140625,-0.365234 1.520996,-1.713379c-0.030273,-0.259766 0.086914,-0.401855 0.058594,-0.662109c-0.516602,-1.13623 -2.37793,-0.180664 -2.523926,-0.297852l-0.808105,-0.191406c-0.272461,-0.106934 -0.779297,0.070313 -1.166992,0.105469l0,0zm6.001465,-0.275391l-0.648926,0.057617l0.172363,0.378418c0.766113,-0.199707 1.284668,-0.24707 1.316895,-1.169434c-0.649414,0.058594 -0.779785,0.069824 -0.840332,0.733398l0,0zm-40.908691,2.486816l-0.602051,2.945313l0.269043,1.288574l0.541016,2.578613c0.333008,-0.554199 0.930664,-2.315918 0.991211,-2.978027l0.147949,-1.06543c0.04541,-0.791504 0.147461,-1.062988 -0.196777,-1.820801l-0.840332,0.731934l-0.05127,-1.702637l-0.258789,0.022461l0,0zm42.253906,-3.396973c-0.083008,-0.780762 0.060547,-0.661621 0.722656,-0.590332l-0.009277,-1.312988c-0.376465,0.165039 -0.89502,0.212402 -1.258301,0.506836c-0.579102,0.708496 -0.506836,1.360352 0.544922,1.396484l0,0zm-3.859863,-1.754883l0.444824,0.485352c0.89502,-0.211914 1.182617,0.024414 1.990234,0.215332l-0.315918,-0.497559l0.333008,-0.555176c0.779785,-0.068848 0.840332,-0.732422 0.51123,-1.359375c-0.144043,-0.118652 -0.418457,-0.225098 -0.562012,-0.344238c-1.398438,-0.792969 -1.530762,0.400879 -1.86377,0.956055l-0.537598,1.099609l0,0zm3.362305,-0.433594c0.259277,-0.023438 0.520508,-0.046387 0.766113,-0.199219c0.477051,-0.4375 0.208496,-1.727539 -0.211914,-1.952148c-0.402832,-0.095215 -0.620117,0.317871 -0.591797,0.578125l-0.088867,0.40332l0.069824,0.649902l0.056641,0.52002l0,0zm-41.749023,3.220703c0.463379,-0.566895 0.624512,-1.501465 0.685059,-2.164063c-0.866699,0.473145 -0.783203,1.25293 -0.685059,2.164063l0,0zm4.601563,-8.426758c0.125,1.171387 -0.022461,2.235352 -0.431152,3.322754c-0.522461,1.22998 -1.782715,2.919434 -2.047363,4.124512l-0.300781,-0.367188c-0.565918,0.839355 -0.630371,2.685059 -0.270508,3.571777c0.70752,-0.720215 0.870117,-1.654785 1.305176,-2.481934c0.857422,-1.78418 2.001953,-3.331543 2.440918,-5.342285c0.075684,-0.532227 0.181641,-1.987305 -0.13623,-2.483887c-0.157227,-0.249023 -0.287598,-0.236816 -0.560059,-0.34375l0,0zm118.26416,3.445801c0.681641,-0.981445 0.863281,-2.966797 1.124023,-4.174316c0.617188,-2.813477 1.918945,-4.112305 1.540039,-7.625977c-0.083008,-0.780273 -0.381836,-2.330078 -1.316406,-2.509766c-1.457031,-0.131348 -0.859375,1.785156 -0.946289,2.187012c0.041992,0.391113 -0.060547,0.662598 -0.163086,0.935059c-0.638672,1.370605 -0.339844,2.92041 -0.317383,4.363281l-0.276367,4.754395l0.355469,2.070313l0,0zm-21.032227,-22.41748c0.026367,0.259766 0.169922,0.378906 0.329102,0.626953c0.143555,0.119141 0.288086,0.237305 0.431641,0.355957c0.835938,0.450195 1.271484,-0.376465 0.953125,-0.874512c-0.154297,-0.248535 -0.688477,-0.332031 -0.949219,-0.308105c-0.257813,0.023438 -0.518555,0.046387 -0.764648,0.199707l0,0zm19.427734,-2.269043c0.125,1.171387 0.594727,3.100586 1.097656,4.105957l1.146484,2.130371l1.354492,4.08252c0.696289,-0.850586 0.326172,-1.868652 0.098633,-2.767578c-0.585938,-1.786621 -1.430664,-3.550293 -2.133789,-5.194336c-0.488281,-0.875977 -0.84375,-1.764648 -1.563477,-2.356934l0,0zm-7.178711,-2.114258l-0.105469,1.454102l-1.775391,-0.629395c-0.029297,0.923828 0.382813,2.331543 1.117188,3.053223l1.425781,1.054688c1.150391,0.948242 2.316406,2.026367 3.349609,3.115234c0.908203,1.101563 0.949219,1.492188 1.263672,1.98877c0.288086,0.236328 0.575195,0.474121 0.950195,0.308594c0.246094,-0.15332 0.306641,-0.81543 0.408203,-1.087891l0.435547,-0.827148c0.189453,-0.67334 -0.310547,-1.679199 -0.639648,-2.307129l-0.859375,-1.893066c-0.359375,-0.887695 -0.575195,-1.656738 -1.176758,-2.390625c-1.021484,-0.959473 -1.800781,-0.889648 -2.879883,-1.1875l-1.513672,-0.651855l0,0zm-36.131836,1.796387c-0.076172,0.532715 -0.121094,1.325684 -0.756836,1.513672c-0.128906,0.011719 -0.662109,-0.071777 -0.806641,-0.190918l-0.495117,1.490234c-0.219727,0.413086 -0.628418,1.500977 -0.583008,1.89209c-0.060547,0.661133 0.847656,0.57959 1.30957,0.013184c0.480469,-0.437012 0.541016,-1.099609 0.874023,-1.654785c0.537109,-1.099121 1.532227,-1.583496 1.65332,-2.907227l-1.195313,-0.15625l0,0zm40.25293,-4.925781c0.386719,1.148438 0.658203,1.255371 1.291016,2.249512c0.329102,0.627441 0.242188,1.029297 1.005859,0.82959c-0.457031,-0.615723 -1.732422,-2.734863 -2.296875,-3.079102l0,0zm-54.458984,6.988281c-1.457031,-0.131348 -0.495605,1.490234 -0.685059,2.163574c-0.317871,0.686035 -1.77832,1.736816 -2.48584,1.274414c-0.375,0.165527 -0.764648,0.200684 -1.169434,0.10498c-0.401367,-0.095703 -0.688965,-0.332031 -1.078613,-0.296875l-2.069824,1.499512c-0.363281,0.294922 -0.851563,0.601563 -1.373535,0.647949c-0.38623,0.035156 -0.908203,0.081055 -1.13916,0.366211c-0.363281,0.293945 -0.019043,1.051758 0.155273,1.430176l0.616699,0.864746c-1.271484,0.376465 -1.17334,1.286621 -1.04834,2.458984c0.071777,0.649902 0.321777,2.992188 0.507324,3.500977c0.200195,0.639648 1.051758,1.219727 1.725586,1.420898c0.419922,0.226563 1.082031,0.297363 1.47168,0.263184l0.09082,-1.585449l0.390137,-0.03418l0.400879,1.27832c0.128906,-0.012695 0.389648,-0.035156 0.518555,-0.047363l1.615723,0.381348c0.144043,0.118164 0.144043,0.118164 0.287598,0.236328c0.17041,0.378418 -0.147461,1.064453 -0.105957,1.455078c0.227051,0.898438 1.165527,1.077637 1.945313,1.007324c-0.019043,1.052246 0.083008,0.780762 0.022461,1.442871c0.071777,0.650879 -0.317871,0.686035 0.484375,2.058594c0.15918,0.248047 0.488281,0.875977 0.87793,0.84082c0.389648,-0.034668 1.199707,-1.027344 2.066406,-1.499023c0.200195,0.638184 0.215332,0.769043 0.775391,1.113281l-0.188965,0.67334l1.475586,-0.92041c-0.438965,2.009766 -1.274902,1.559082 -2.187012,2.823242c-0.321777,0.686523 -0.121094,1.325195 -0.310547,1.999023l0.144043,0.118164l0.491699,-0.306641l0.375,-0.164551c1.153809,-0.23584 0.257324,1.158691 0.283691,1.418945c0.041504,0.391113 0.317871,0.496582 0.590332,0.604492l-0.609375,0.447754l0.359375,0.888184l-2.338379,0.209961c-1.154297,0.234863 -2.111816,1.108887 -3.080566,1.852539l0.030273,0.260254l0.401367,0.095215l-2.240234,1.121094c0.677246,0.200684 1.559082,-0.140137 2.209961,-0.19873c0.635742,-0.188965 0.518555,-0.04541 1.286621,-0.247559l0.416016,0.227051l-0.075684,0.531738l2.853516,0.925293c0.677246,0.202148 1.169434,-0.104492 1.589355,0.121094c0.560059,0.344238 0.370605,1.017578 1.309082,1.195313c1.078613,0.297363 1.934082,-0.304199 2.827148,-0.516113l-1.056152,1.146484l0.488281,0.875977l1.271484,-0.376465c-0.942383,1.00293 -0.896973,0.211914 -2.713379,0.374512c0.416504,0.225098 1.653809,0.77002 1.930176,0.87793c0.677246,0.202637 1.036621,-0.094727 1.990234,0.21582c0.806152,0.188965 1.786133,0.758789 2.047363,-0.44873c0.158691,0.25 0.317871,0.498047 0.461426,0.617188c0.416992,0.225098 0.677734,0.202148 1.083008,0.296875c0.533203,0.083496 1.796875,0.88916 1.740234,1.551758c-0.117188,0.141602 -0.234375,0.283691 -0.347656,0.425781c-0.174805,-0.380371 -0.344727,-0.756836 -0.647461,-1.124023c-0.745117,-0.853516 -1.888672,-0.488281 -2.82666,-0.667969l-1.888672,-0.486328l-1.456543,-0.132324c-0.791016,-0.060547 -1.237793,-0.544922 -2.01709,-0.475098c-0.26123,0.022949 -0.635742,0.1875 -0.605469,0.448242c0.026367,0.259277 0.313965,0.498047 0.458008,0.615234c0.835938,0.450195 0.533203,0.083008 1.80127,0.88916c0.703613,0.461914 0.949707,0.308594 1.626953,0.510742l0.692383,0.333008c0.533691,0.083496 0.635742,-0.188965 1.169434,-0.105957c0.257324,-0.022461 0.791016,0.060547 1.066895,0.168457l-2.254883,0.989746l-1.729492,-0.238281c0.344238,0.756836 0.488281,0.875977 -0.09082,1.583496l-0.317871,-0.495605c-0.348145,0.423828 -0.317871,0.685059 -0.666016,1.110352l-0.579102,0.708008c-0.102051,0.272461 -0.450195,0.698242 -0.711426,0.720703c-0.389648,0.036133 -0.83252,-0.450195 -1.124023,-0.686523c-0.560059,-0.344727 -0.820801,-0.321777 -1.456543,-0.132813c0.476563,0.745605 0.722656,0.592285 1.411133,0.92334c0.563965,0.344238 2.001953,1.528809 2.44873,2.015137c-0.132813,0.01123 -0.26123,0.022949 -0.363281,0.29541c-0.230957,0.283691 0.022461,1.443359 0.325195,1.808594c0.287598,0.238281 0.563965,0.344238 0.949707,0.310547l-1.547363,1.453125c0.677246,0.200195 0.92334,0.047363 1.498535,0.521973l-1.29834,0.115234l-1.713867,-1.290039l-1.786133,-0.760742c0.666016,0.071777 1.717773,0.109863 2.338379,-0.209961c1.112793,-0.624512 0.583008,-1.890137 -0.279785,-2.601563c-0.560059,-0.344727 -0.950195,-0.308594 -1.612305,-0.380371c-0.533691,-0.083496 -1.354492,-0.404785 -1.876953,-0.35791l-1.415039,0.259277l0.09082,-0.402832c-0.405273,-0.094727 -0.548828,-0.213867 -0.912109,0.081543c-0.431641,-0.355957 -0.442871,-0.484375 -0.976563,-0.567871l0.068359,0.648926l-0.590332,-0.603516l-0.056641,0.662109c-0.317871,-0.497559 -0.333008,-0.625977 -0.87793,-0.839844l0.438965,1.666992l-0.21582,0.414063c-0.722656,0.590332 -0.715332,1.903809 -0.628418,2.685059c0.166504,1.561035 -0.181641,1.986816 -0.313965,3.180664c-0.03418,0.921387 0.268555,1.288574 0.019043,2.625977c-0.071777,0.531738 -0.567871,2.020996 -0.787109,2.435547l-0.579102,0.70752l-0.435059,0.82666c-0.219727,0.414551 -0.579102,0.709473 -0.79834,1.124023c-0.20459,0.542969 0.083008,0.78125 0.242188,1.029297c0.215332,0.768066 -0.333008,0.554199 0.571289,1.657227l-0.461914,0.565918l0.518555,-0.047363c-0.291504,0.946289 0.298828,1.551758 1.191895,1.339844c0.635742,-0.189453 1.332031,-1.039063 1.521484,-1.714355l0.26123,-0.022949l1.748047,2.864746c0.302734,0.367188 0.374512,1.018066 0.908203,1.101074c0.533691,0.083496 0.734375,-0.459473 0.953613,-0.874023c0.230957,-0.283691 0.477051,-0.437012 0.70752,-0.720703c0.321777,-0.685059 -0.310059,-1.680176 -0.249512,-2.342773c0.071777,-0.53125 0.435059,-0.82666 0.495605,-1.48877c-0.098145,-0.910156 -0.775879,-1.112793 -1.222168,-1.599121c-0.446777,-0.484375 -0.499512,-1.004395 -0.571289,-1.655273c-0.155273,-1.432617 0.58252,-1.89209 0.71875,-3.085938c0.04541,-0.792969 -0.400879,-1.277344 -0.458008,-1.799316c-0.041504,-0.390137 0.04541,-0.791016 0.435547,-0.827148c0.896484,-0.211914 1.006348,0.830566 1.078125,1.47998l-0.121094,1.324219c-0.071777,0.533691 -0.291016,0.946289 -0.219238,1.59668c0.185547,0.509277 0.488281,0.876465 0.658203,1.254883c0.302734,0.366699 0.344727,0.758789 0.632324,0.995117c0.272461,0.105957 0.416016,0.223145 0.677246,0.200684c0.272461,0.10791 0.544922,0.213379 0.806152,0.190918c0.635742,-0.189453 1.290039,-1.430664 1.895508,-1.876953c0.363281,-0.296875 0.896973,-0.211914 1.286621,-0.248047c-0.219238,0.414551 -0.79834,1.124023 -1.029297,1.40625c-0.491699,0.306152 -1.388672,0.518066 -1.434082,1.311035c-0.276367,1.07666 1.150391,0.947754 1.120117,1.869141c-0.060547,0.662598 -1.066895,-0.166504 -1.373535,0.648926c-0.435059,0.827148 0.140137,1.302246 0.340332,1.941406c0.041992,0.390137 -0.173828,0.802246 -0.264648,1.205566c-0.548828,0.96875 -1.010254,0.353516 -1.748535,0.813477c-0.620605,0.319824 -1.301758,1.299805 -1.9375,1.489258c-0.50293,0.175781 -0.938477,-0.180176 -1.328125,-0.145996c-0.518555,0.047363 -0.953613,0.875977 -1.816406,0.164551c-0.87793,-0.841797 0.121094,-1.324219 -0.094727,-2.094238l-0.529785,-1.266113c-0.737793,0.459961 -1.460449,1.052246 -1.218262,2.081543c0.359375,0.885254 1.222168,1.59668 0.771973,2.292969c-0.363281,0.29541 -1.143066,0.365234 -1.748535,0.813965c-0.737793,0.461426 -1.505859,1.842773 -1.751953,1.998047c-0.363281,0.294922 -0.75293,0.329102 -1.112305,0.624023l-1.305664,1.299805c-0.11377,0.14209 -0.11377,0.14209 -0.230957,0.28418l-1.626953,-0.51123l0.098145,0.910156c-0.650879,0.058594 -0.650879,0.058594 -1.18457,-0.024414c-0.400879,-0.09668 -1.195801,-0.155273 -1.399902,0.387695c-0.219727,0.414551 0.862793,0.711426 1.13916,0.817383c1.65332,0.771973 1.979004,2.581055 1.271484,3.303711c-0.477051,0.435059 -1.29834,0.115234 -1.831543,0.032227c-1.199707,-0.155273 -3.087891,-0.643555 -4.268555,-0.667969c-1.55957,0.138184 -1.05957,1.144531 -1.362305,1.960449c-0.076172,0.533203 -0.567871,0.839844 -0.654785,1.241211c-0.117676,0.141602 -0.102051,0.272461 -0.087402,0.402832c-0.014648,-0.130371 0.427734,1.538086 0.412598,1.407715c0.185547,0.508789 1.097656,0.427734 1.631348,0.510742c0.67334,0.200684 0.847656,0.581055 1.407227,0.925293c0.548828,0.211914 0.794922,0.058594 1.301758,-0.117188c1.166016,-0.105957 2.27832,0.452148 4.011719,-0.492188c0.374512,-0.164551 0.737793,-0.459473 0.839844,-0.731934c0.348145,-0.423828 0.174316,-0.804199 0.650879,-1.241211c0.594238,-0.579102 1.748535,-0.813965 2.357422,-1.262207c0.477051,-0.437012 0.132813,-1.193848 1.01416,-1.536133c0.635742,-0.1875 1.339844,0.274414 2.22168,-0.068359c0.76416,-0.200684 1.589355,-1.061523 2.357422,-1.261719c0.779297,-0.070313 1.263672,0.805664 2.346191,1.103027l4.294922,0.926758c0.132324,-0.01123 0.404785,0.09668 0.548828,0.21582c1.150391,0.946289 -0.507324,1.358398 -1.143066,1.547852c-0.506836,0.175781 -0.635742,0.187012 -1.157715,0.234375c0.147461,0.117676 0.158691,0.248047 0.302734,0.367188c0.548828,0.213867 1.873047,0.35791 2.353516,-0.07959c0.230957,-0.283691 0.20459,-0.544922 0.163086,-0.93457c0.50293,-0.175781 0.749023,-0.329102 0.953613,-0.874023c-0.041992,-0.389648 -0.21582,-0.768066 0.147461,-1.063477c0.230957,-0.283691 0.749023,-0.331055 1.142578,-0.367188c-0.605469,-0.731934 -1.097168,-0.425781 -1.89209,-0.486328c-0.400879,-0.094238 -0.560059,-0.344238 -0.964844,-0.438477c-0.389648,0.035645 -0.749023,0.331055 -1.297852,0.117188c-0.404785,-0.09668 -0.836426,-0.452148 -1.237305,-0.546875c-0.42041,-0.225098 -1.487305,-0.391602 -1.426758,-1.054199c0.102051,-0.272461 0.219238,-0.414063 0.476563,-0.437012c0.117676,-0.141602 0.246094,-0.15332 0.378418,-0.166504l0.185547,0.51123c1.385254,-0.518555 0.93457,0.177734 2.134277,0.333008c1.078613,0.296875 2.350098,-0.07959 3.447266,0.348145c0.677734,0.200195 0.458008,0.614746 1.04834,1.218262c0.719238,0.594238 1.744629,0.369141 2.652344,0.287598c-0.113281,0.14209 -0.245117,0.155273 -0.230469,0.283691c-0.219727,0.414551 0.068359,0.650879 0.344727,0.756836c0.975586,0.569824 2.425781,-0.61084 1.18457,-1.155762l1.994141,-0.966797c-0.964844,-0.438965 -1.442383,-0.001953 -2.709961,-0.808105c0.651367,-0.058594 0.779297,-0.069824 1.256836,-0.507324l0.075195,-0.533203l2.111328,-1.108887c-0.668945,1.11084 0.083984,0.78125 0.336914,1.941406c0.651367,-0.058594 1.457031,0.130371 2.108398,0.07373c0.506836,-0.177734 1.891602,-0.696289 2.254883,-0.991699c0.359375,-0.294922 0.450195,-0.696289 0.80957,-0.991211l1.50293,-0.660645c0.609375,-0.448242 1.071289,-1.015625 1.536133,-1.583496c0.230469,-0.283691 0.461914,-0.567383 0.867188,-0.471191c0.544922,0.213867 0.68457,1.515625 0.741211,2.036133c0.173828,0.378418 0.359375,0.885254 0.401367,1.276855c-0.080078,1.714355 -1.880859,2.007813 -2.966797,2.893066c-0.722656,0.590332 -1.275391,1.559082 -2.02832,1.890137c-0.96875,0.743652 -3.743164,1.780762 -5.014648,2.157227l-2.698242,0.504883c-0.620117,0.319824 -1.342773,0.910156 -1.546875,1.453125c-0.205078,0.544922 0.124023,1.171387 -0.496094,1.489258c-0.621094,0.319824 -3.205078,0.681152 -3.867676,0.611328c-1.066895,-0.168457 -0.70752,-0.463867 -2.266602,-0.32373c-1.426758,0.128906 -2.970703,0.399414 -4.442383,0.13623c0.230469,-0.283691 0.696289,-0.851563 0.783203,-1.252441c0.102051,-0.272461 -0.041504,-0.391602 -0.071777,-0.650879c-0.011719,-0.128906 -0.041992,-0.389648 -0.185547,-0.508789c-0.302734,-0.367188 -1.339844,-0.274414 -1.729492,-0.23877c-0.896973,0.211914 -0.737793,0.459961 -2.164551,0.588379l-4.794434,0.562012c-2.334961,0.208496 -4.200684,1.165527 -5.108887,1.24707c-0.650879,0.058594 -2.10791,-0.07373 -2.785156,-0.276367c-0.54834,-0.213867 -1.123535,-0.688477 -1.744629,-0.368652c-0.635742,0.188965 -0.839844,0.731934 -1.588867,1.061035c-0.753418,0.331543 -2.179688,0.459961 -3.035156,1.061523c-0.851563,0.602051 -0.406738,1.087891 -1.403809,1.570801c-0.505371,0.177734 -2.206543,0.198242 -2.856934,0.256836c-1.441895,-0.001465 -2.165039,0.588867 -3.422852,1.095703l-1.387207,0.518555c-0.504883,0.175781 -1.530762,0.399414 -1.748047,0.813477c-0.217773,0.412598 0.098145,0.910156 0.140137,1.301758c0.041504,0.389648 -0.045898,0.791016 -0.134766,1.193848c-0.679199,0.980469 -2.429199,1.793945 -2.143555,3.214844c0.227051,0.898926 0.760742,0.981934 1.76709,1.810547c1.322754,1.32666 2.312012,3.208984 3.736816,4.263184c1.841309,1.280762 4.505371,2.881348 6.783203,3.333496l3.95459,0.17041c2.119141,0.202637 3.746582,0.715332 5.97168,0.645508l4.88916,-0.83252c1.040527,-0.092773 2.584473,-0.363281 3.666504,-0.066406c1.08252,0.296875 1.294434,1.066895 3.243164,0.891113l2.713379,-0.374512c0.635742,-0.1875 1.142578,-0.365234 1.831543,-0.032227c1.672363,0.900879 -1.161621,2.599609 0.132324,3.666992c0.719238,0.592285 3.099121,0.771973 4.052734,1.080078c0.662598,0.072266 2.750977,1.197754 3.198242,1.684082c0.287109,0.236328 0.313477,0.497559 0.616211,0.864746c0.298828,0.367188 0.980469,0.567871 1.021484,0.959473c0.041992,0.389648 -0.797852,1.12207 -1.029297,1.405762c-0.710938,0.720703 -2.088379,2.552246 -1.3125,3.665039c0.302734,0.366699 1.124023,0.686523 1.543945,0.911621l3.788086,1.10498c1.641602,0.641602 1.782227,1.943359 2.777344,2.641602c0.704102,0.463379 1.873047,0.357422 2.796875,0.406738l3.905273,0.962891c1.358398,0.405273 0.791016,1.243164 1.857422,1.409668c2.251953,0.193359 5.708008,-1.825684 7.542969,-3.040527l3.727539,-1.911133c1.491211,-0.790527 2.833984,-1.700684 4.177734,-2.608887c2.546875,-1.935547 4.631836,-4.488281 5.895508,-7.360352c0.435547,-0.82666 1.668945,-2.777832 1.745117,-3.309082c0.173828,-0.804199 -0.663086,-1.254883 -0.34082,-1.939453c0.419922,-0.959473 2.115234,-2.293457 2.520508,-3.379395c0.336914,-0.556152 0.238281,-1.466309 -0.326172,-1.810547c-0.544922,-0.213867 -0.908203,0.081055 -1.990234,-0.21582c0.817383,-2.174316 2.296875,-4.27832 3.527344,-6.229004c0.567383,-0.837891 1.581055,-2.374512 1.600586,-3.42627c0.003906,-1.182617 -1.052734,-1.220703 -1.495117,-1.705078c-0.431641,-0.355469 -0.333008,-0.62793 -0.605469,-0.73584c-0.544922,-0.211914 -1.415039,0.259277 -1.948242,0.175781c-0.390625,0.03418 -0.677734,-0.202148 -0.950195,-0.308105c-0.419922,-0.225098 -0.923828,-0.049316 -1.313477,-0.015137c-0.585938,-1.786133 0.635742,-5.04834 1.234375,-6.80957c1.165039,-3.782715 2.724609,-7.602539 2.160156,-11.623535l-0.597656,-3.099121c-0.169922,-0.380371 -0.484375,-0.875977 -0.991211,-0.700195c-0.764648,0.200684 -1.438477,2.494141 -1.755859,3.178711l-1.755859,3.180664c-0.450195,0.696289 -0.742188,1.642578 -1.335938,2.221191c-0.477539,0.4375 -1.230469,0.766602 -1.850586,1.084473c-0.201172,-0.637695 -0.575195,-0.473145 -1.082031,-0.29541l-2.354492,1.262207c-0.491211,0.306641 -1.459961,1.050293 -2.111328,1.108887c-0.518555,0.047363 -0.821289,-0.319824 -1.584961,-0.121094c-0.518555,0.047363 -1.400391,0.389648 -1.805664,0.292969c-0.533203,-0.083008 -1.108398,-0.556152 -1.642578,-0.63916c-0.400391,-0.09668 -1.168945,0.104004 -1.543945,0.268555c-1.298828,0.117188 -3.331055,-0.490234 -4.673828,-0.762695c0.246094,-0.15332 0.506836,-0.175781 0.480469,-0.437012c0.189453,-0.67334 -0.847656,-1.763184 0.423828,-2.140137c0.128906,-0.01123 0.389648,-0.035645 0.518555,-0.046875l2.220703,-0.068359l1.288086,-0.246094c0.662109,0.072266 0.835938,0.450684 1.744141,0.369141l3.19043,-0.811523c1.301758,-0.117676 1.827148,1.150391 3.174805,0.240234c1.097656,-0.754883 2.130859,-3.345215 2.524414,-4.562012l1.134766,-2.86084l0.439453,-2.009277c0.495117,-1.491211 0.945313,-2.1875 0.763672,-3.878906l-0.264648,-2.473145c-0.113281,-1.040527 -0.325195,-1.810547 -1.396484,-0.794434c-0.828125,0.862793 -1.120117,1.808594 -2.444336,1.665039c-0.351563,1.608398 -0.128906,3.689453 -1.733398,4.622559c-0.609375,0.448242 -1.286133,0.245605 -1.917969,0.435059c-0.378906,0.164551 -0.871094,0.473145 -1.143555,0.365234c-0.389648,0.033691 -0.676758,-0.202637 -0.71875,-0.592285c0.072266,-0.531738 0.954102,-0.874023 1.332031,-1.039063c1.256836,-0.506836 1.892578,-0.696289 2.819336,-1.82959c0.563477,-0.839844 0.624023,-1.502441 1.074219,-2.19873c0.461914,-0.567383 0.867188,-0.472656 1.329102,-1.038574c0.347656,-0.425781 0.987305,-1.797363 1.320313,-2.352051l1.588867,-4.741211c0.768555,-1.383301 2.055664,-1.629395 2.392578,-3.368164l0.200195,0.639648c1.374023,-0.648926 1.362305,-1.961914 1.09375,-3.250488c0.779297,-0.070313 2.365234,0.049316 3.000977,-0.138184l2.947266,-1.84082c0.738281,-0.461914 1.953125,-1.358887 2.126953,-2.163086c0.204102,-0.542969 -0.639648,-2.306152 -0.942383,-2.67334c-0.155273,-0.248047 -0.298828,-0.367188 -0.575195,-0.473145c-0.677734,-0.202148 -1.570313,0.009766 -2.058594,-0.866699c-0.605469,-0.733887 -1.275391,-3.30127 -1.774414,-4.308105c-1.075195,-2.662109 -1.146484,-2.130371 -1.650391,-3.13623c-0.329102,-0.626953 -0.268555,-1.289551 -0.34082,-1.94043c-0.18457,-0.507813 -0.487305,-0.875 -0.513672,-1.13623c-0.057617,-0.52002 0.305664,-0.81543 0.654297,-1.240234c0.548828,-0.969727 0.464844,-1.75 1.05957,-2.329102c0.476563,-0.437012 0.896484,-0.210938 1.112305,-0.625c0.798828,-1.12207 -1.130859,-2 -0.480469,-3.241211c0.333008,-0.555664 1.275391,-1.559082 1.925781,-1.618164c0.503906,-0.175781 0.923828,0.04834 1.426758,-0.127441c0.492188,-0.307617 0.526367,-1.22998 0.730469,-1.773926c0.506836,-1.359375 1.301758,-1.298828 1.495117,-3.154785c0.060547,-0.662598 0.09082,-1.585938 -0.223633,-2.08252c-0.605469,-0.734863 -1.457031,-0.132324 -1.661133,0.411621c-0.450195,0.696289 -0.351563,1.608398 -0.268555,2.388672c-0.045898,0.791992 -0.193359,1.855957 -0.643555,2.553223c-0.548828,0.969727 -1.672852,0.282227 -1.990234,-0.214355c-0.155273,-0.249023 -0.052734,-0.520508 -0.083008,-0.781738c0.018555,-1.052734 -0.28418,-1.418945 -0.019531,-2.625c0.072266,-0.532715 0.567383,-2.021973 0.413086,-2.270508c-0.045898,-0.390625 -1.238281,-1.727539 -1.537109,-2.095703c-0.589844,-0.603516 -1.65332,-1.953613 -2.636719,-1.339355c-0.867188,0.471191 -0.685547,2.163574 -0.847656,3.097168c-0.087891,0.401855 -0.265625,1.206055 -0.655273,1.241211c-0.242188,0.15332 -0.676758,-0.202637 -0.960938,-0.438965c-0.734375,-0.722656 -1.180664,-1.208008 -1.305664,-2.379395c0.401367,0.094727 1.483398,0.392578 1.558594,-0.140137c-0.056641,-0.52002 -0.672852,-1.384766 -1.195313,-1.337402c-0.533203,-0.083496 -0.605469,0.448242 -1.313477,-0.013184c-0.575195,-0.474121 -1.850586,-2.593262 -2.456055,-3.327637c-0.759766,-0.98291 -1.895508,-1.800293 -3.007813,-2.357422c-0.673828,-0.201172 -2.865234,-1.056641 -3.473633,-0.607422c-0.246094,0.15332 -0.205078,0.542969 -0.306641,0.814453c-0.143555,-0.117188 -0.288086,-0.236328 -0.544922,-0.213379c-0.938477,-0.178223 -1.214844,0.897461 -1.275391,1.560059c0.026367,0.259766 0.083008,0.78125 -0.291992,0.945801c-0.37793,0.164551 -0.666016,-0.071777 -0.954102,-0.309082c-0.704102,-0.461914 -0.71875,-0.592285 -1.668945,-0.900879c0.185547,0.508789 0.371094,1.018066 0.685547,1.514648c0.763672,0.98291 1.282227,0.935547 1.161133,2.26123c-1.09375,-0.427734 -2.331055,-0.972656 -3.080078,-1.826172l1.010742,-0.353516l-0.027344,-0.259277c-0.416016,-0.226074 -1.842773,-1.280273 -1.899414,-1.800293c-0.041992,-0.390625 0.476563,-0.437988 0.435547,-0.828125c0.09082,-0.401855 -0.329102,-0.626953 -0.125,-1.170898c0.347656,-0.425781 1.100586,-0.755859 1.043945,-1.276367c-0.030273,-0.260254 -0.317383,-0.496582 -0.589844,-0.603516c-0.560547,-0.344238 -1.555664,-1.04248 -2.149414,-0.464355c-0.476563,0.437012 -0.117188,1.324219 -0.381836,2.530273c-0.405273,-0.094238 -1.097656,-0.427246 -1.499023,-0.521973c-0.533203,-0.083496 -1.154297,0.234375 -1.84668,-0.09668c-0.953125,-0.309082 -1.293945,-1.066895 -2.115234,-1.387695c-1.513672,-0.651855 -2.785156,-0.274414 -4.200195,-0.016113c-0.647461,0.057617 -1.688477,0.151367 -2.308594,0.469238c-0.492188,0.307617 -0.711914,0.720703 -0.927734,1.134277c-0.578125,0.709473 -1.72168,1.07373 -1.607422,2.114258c0.226563,0.899902 1.021484,0.960449 1.308594,1.195801l0.829102,1.634766c-0.893555,0.210938 -1.313477,-0.013184 -2.088867,0.056152l-3.07666,0.669434c-1.574219,0.010742 -2.0625,-0.865234 -3.027344,-1.304199c-0.544922,-0.213867 -0.93457,-0.179199 -1.354492,-0.404297c-0.431641,-0.354492 -0.473145,-0.745117 -0.617188,-0.864746c-0.302734,-0.365723 -1.626953,-0.510742 -2.016602,-0.475586c0.026367,0.26123 0.041504,0.390625 -0.189453,0.67334c-0.219238,0.414551 -1.332031,1.040039 -1.850586,1.086426c-0.245605,0.15332 -0.650879,0.058594 -0.92334,-0.04834l0.072266,-0.532715c0.060547,-0.661133 -0.32959,-0.626465 -0.83252,-0.450195c-0.768555,0.200195 -1.22998,0.76709 -1.839355,1.21582c0.219727,-0.413574 0.423828,-0.95752 0.771973,-1.382324c0.477051,-0.437012 1.112793,-0.626465 1.733398,-0.944336l1.963867,-1.227051c0.491699,-0.306641 1.245117,-0.637695 1.604492,-0.932617c1.085938,-0.885742 1.312988,-3.664063 1.029297,-5.083984c-2.009277,0.835938 -1.476074,0.919434 -2.834473,1.69873c-0.491699,0.306641 -0.75293,0.330566 -1.127441,0.495117c-0.359863,0.295898 -0.450684,0.698242 -0.537598,1.099121l0,0zm13.782227,-4.783203l1.279297,0.936523l0.975586,1.750977c0.75,-0.330078 0.851563,-0.601563 1.359375,-0.77832c0.245117,-0.15332 1.861328,0.227051 1.486328,-0.790039c-0.143555,-0.119141 -0.287109,-0.237305 -0.430664,-0.355469l-0.086914,0.401855c-0.431641,-0.355469 -1.006836,-0.82959 -1.555664,-1.043457c-0.548828,-0.212891 -2.380859,-0.179688 -3.027344,-0.12207l0,0zm4.397461,0.656738c1.816406,-0.162598 1.501953,-0.660645 2.542969,-0.753418c0.50293,-0.177734 1.308594,0.013672 1.842773,0.09668l-0.072266,0.531738c1.09375,0.427734 1.025391,-0.223145 1.832031,-0.033203c0.821289,0.320801 1.324219,1.327637 2.678711,1.730469c0.544922,0.214844 0.821289,0.320801 1.313477,0.01416c0.313477,0.497559 0.446289,0.486328 0.964844,0.438965c0.060547,-0.662109 0.43457,-0.827637 0.260742,-1.206055c-0.169922,-0.379395 -1.540039,-0.913086 -1.657227,0.412109c-0.461914,-0.616699 -0.21582,-0.77002 -0.385742,-1.147461c-0.461914,-0.616699 -1.384766,-0.665039 -2.021484,-0.476563c-0.268555,-1.289551 -0.097656,-0.911133 -1.895508,-1.800293c-0.563477,-0.34375 -1.800781,-0.889648 -2.466797,-0.961426c-0.791016,-0.060547 -0.995117,0.483398 -1.616211,0.802246c-0.347656,0.425781 -0.75293,0.330078 -1.112305,0.625488c-0.348633,0.424805 -0.264648,1.206055 -0.208008,1.726563l0,0zm27.443359,-5.747559l1.642578,1.824219c0.617188,0.86377 1.233398,1.728516 1.967773,2.450195c0.575195,0.474121 1.396484,0.794922 2.161133,0.595215c0.506836,-0.177246 2.039063,-1.759766 0.787109,-2.436035c-0.416992,-0.224609 -1.041016,0.09375 -1.426758,0.128418c0.030273,-0.922363 -0.026367,-1.442871 -0.253906,-2.342285c-0.026367,-0.260254 -0.083008,-0.780273 -0.59082,-0.603516c-0.620117,0.318848 0.110352,2.223145 -0.870117,1.654297l-0.416016,-0.225098l-0.431641,-0.355469c-0.464844,0.566406 0.083008,0.780273 0.530273,1.265625c0.575195,0.475098 1.017578,0.960449 1.104492,1.740723c-1.411133,-0.925293 -1.494141,-1.70459 -2.402344,-2.805664c-0.586914,-0.604492 -1.018555,-0.960449 -1.801758,-0.890625l0,0zm5.634766,-1.292969c0.355469,0.887207 1.748047,2.864746 2.702148,3.172852c-0.647461,-1.124023 -1.479492,-2.757813 -2.702148,-3.172852l0,0zm-96.149414,9.546387c0.389648,-0.034668 0.910156,-0.081543 1.168945,-0.10498l3.387207,1.009766c0.938477,0.178711 1.861816,0.227539 2.478516,1.091309c-1.687988,0.152344 -1.328125,-0.143555 -2.667969,-0.416992c-1.195801,-0.155273 -1.559082,0.140137 -2.482422,0.09082c-0.533691,-0.083496 -0.806152,-0.189941 -1.210938,-0.284668l-3.477539,0.574219c-0.92334,-0.04834 -1.124023,-0.687012 -1.672852,-0.900879c-0.560059,-0.344238 -1.066895,-0.16748 -1.559082,0.140137c-0.87793,0.341797 -1.73291,0.943359 -2.586426,1.545898c-1.591309,1.061523 -3.42627,2.277832 -4.571289,3.825684c-0.796387,1.12207 -0.597656,1.761719 -1.394531,2.883789c-0.80957,0.992188 -2.675293,1.947754 -3.935547,3.638184c-0.913574,1.26416 -0.830566,2.044434 -1.176758,2.470215c-0.23291,0.282715 -1.837402,1.21582 -2.213867,1.380371c-0.374512,0.164551 -0.76416,0.199707 -1.010254,0.354004c-0.361328,0.294922 -0.579102,0.708496 -0.79834,1.122559l-1.286621,1.428711c-0.333008,0.555176 -1.684082,2.646973 -1.757813,3.179688c-0.032227,0.922363 1.455078,1.314941 0.669922,2.567383c-0.115723,0.141113 -0.230957,0.283203 -0.34668,0.425781c-0.853027,0.601563 -1.082031,-0.297852 -1.744141,-0.369629c-0.808105,-0.19043 -2.009277,0.836914 -2.728516,0.244629c-0.446289,-0.485352 -0.255371,-1.158691 -0.310059,-1.679688c-0.200684,-0.638672 -0.488281,-0.875488 -0.673828,-1.384277c-0.331055,-0.628418 -0.067871,-1.834473 -0.987793,-3.06543c-0.472656,-0.745117 -1.019531,-0.958984 -1.441406,-0.000488l-0.306641,0.814453c-0.514648,-1.135254 -0.223633,-2.081543 -1.162109,-2.26123c-1.195313,-0.154297 -1.560547,1.32373 -2.256836,2.173828c-1.737305,2.126953 -2.026367,1.890137 -3.356934,2.928223l-1.765137,1.866699l-1.101074,0.755859c-0.592285,0.578613 -0.98584,1.796387 -1.290527,2.611816l-1.273438,5.238281c-0.27832,1.074707 -0.745605,2.82666 -1.88623,3.189941c-0.375,0.164551 -1.559082,0.140137 -1.962402,0.04541c-0.417969,-0.225098 -0.71875,-0.591797 -1.12207,-0.688477c-0.389648,0.036133 -1.430176,0.128418 -2.39502,-0.310547c-0.575195,-0.472656 -1.335938,-1.456543 -1.884766,-1.668457c-0.546875,-0.21582 -1.066895,-0.168457 -1.585449,-0.121094c-0.650879,0.056641 -1.559082,0.139648 -2.092773,0.056641c-1.354492,-0.403809 -2.229004,-2.427734 -2.743652,-3.563965c-0.185059,-0.508789 -0.529785,-1.266602 -0.947754,-1.491699c-0.575195,-0.474121 -1.269531,0.376465 -1.946777,0.174805c-0.533691,-0.083984 -1.714355,-1.291016 -2.404785,-1.624023c-0.144043,-0.118652 -0.577148,-0.473145 -0.821289,-0.319824c-0.259277,0.022461 -0.334961,0.556152 -0.435547,0.82666c-0.018555,1.053223 0.270996,1.289551 0.872559,2.024414c0.143555,0.117676 0.590332,0.604004 0.227051,0.898926c-0.605469,0.448242 -1.479492,-1.575195 -2.160645,-0.594238c-0.102539,0.272461 -0.087402,0.402344 -0.20459,0.542969l-0.259277,0.023926l-0.62793,-2.176758l-0.09668,-0.911133l-0.874023,-2.023438l-1.070801,1.015625l-0.255859,-1.159668l-0.357422,-0.887207c-0.200684,-0.638672 -0.71875,-0.592285 -1.210938,-0.286133c-0.96875,0.744629 -1.638672,1.855469 -2.244141,2.303711c-0.737793,0.460938 -1.299805,0.116699 -1.804688,0.293457c-0.620605,0.318848 -1.056152,1.145508 -1.24707,1.820313l-0.999023,5.344238c-0.864746,4.150879 -1.416992,5.119629 -0.94043,9.543457l0.525879,2.44873l0.494141,3.371582l0.440918,1.668457l0.260742,-0.024414c-0.181641,-1.691406 -0.128418,-4.849609 0.352051,-6.46875c0.469238,-1.748535 1.21875,-2.07959 1.256348,-4.185547l0.310547,1.682129c0.709473,-0.723145 0.654297,-1.243164 1.649902,-1.725586c0.331055,0.625977 0.474609,0.745605 0.688477,1.515625c0.200684,0.637207 0.255371,1.157715 0.586426,1.786133c0.32959,0.625977 0.602051,0.733887 0.917969,1.231445c0.302734,0.365234 0.501465,1.004883 0.686523,1.513672c0.359863,0.887695 0.643555,2.308594 1.723633,2.605469c0.422363,-0.95752 0.297363,-2.128418 0.3125,-3.182129c0.102051,-0.272461 0.149414,-1.063477 0.393555,-1.216797c0.635742,-0.189453 0.893066,0.970703 0.93457,1.360352c0.371094,1.018066 0.641602,2.308594 1.258301,3.170898c0.64502,1.125977 1.152344,0.948242 1.996094,2.711426l0.190918,-0.67334c0.35791,0.887207 -0.092285,1.585449 0.887695,2.15332c-0.056641,-0.520508 -0.162598,-2.743652 0.052734,-3.158203c0.102539,-0.272461 0.492188,-0.306641 0.753418,-0.329102l0.605469,4.412109c0.054688,0.520508 0.253418,1.160156 0.556152,1.527344c0.733887,0.722656 1.587402,0.119141 1.916504,0.74707l0.512695,2.317871c0.440918,1.668945 1.056152,3.716309 1.740723,5.22998c0.516602,1.136719 1.203613,2.652344 2.081543,3.492676c0.302734,0.367188 0.747559,0.853516 1.252441,0.675293c0.507324,-0.175781 0.306641,-0.81543 0.393555,-1.216309c0.075684,-0.531738 0.319824,-0.685059 0.408691,-1.087891c0.060547,-0.662598 -0.155273,-1.432617 0.177734,-1.986816c-0.173828,0.804199 0.098633,0.910156 0.183594,1.691406c0.111816,1.040527 0.367188,2.200684 0.739746,3.216797c0.556641,1.528809 0.970703,2.93457 1.903809,4.296875c0.618652,0.864746 2.043457,1.918457 2.90625,2.629883c1.180664,1.207031 2.344238,2.285645 3.769043,3.339355l1.699219,1.162109l1.411133,0.925293c1.25293,0.675293 1.385254,-0.520508 2.164551,-0.588867c0.404785,0.094727 1.827637,1.148438 2.259277,1.504395c2.1875,2.037598 1.468262,1.445801 2.978027,3.280762l3.405762,3.634766c0.87793,0.840332 1.967773,2.452148 3.165527,2.605469l1.197754,0.157227c1.339844,0.274414 2.838379,0.796387 4.238281,0.406738c0.520508,-0.047363 0.881836,-0.34082 1.114258,-0.624512c0.34668,-0.425781 0.550781,-0.96875 1.071289,-1.016113c0.533203,0.083496 1.772949,0.628418 2.319336,0.84375c1.383301,0.662598 3.341797,1.80127 4.812012,2.0625c1.47168,0.263184 2.527832,-0.883301 2.285645,-1.912598c-0.371094,-1.018066 -1.92627,-2.060547 -2.756836,-3.693359c-0.804199,-1.37207 -1.360352,-2.898926 -2.280273,-4.130859l-2.111328,-2.569336l-1.26416,-1.98877l-0.616699,-0.864258c-0.158691,-0.248047 -0.385742,-1.146973 -0.427734,-1.538574l-1.445313,-3.680176c-0.658691,-1.254395 -1.960449,-1.137207 -2.804199,-2.900391c0.603516,0.733887 1.755859,1.682129 2.575195,2.001953c-0.370605,-1.018066 -1.20166,-2.650879 -1.820313,-3.515625l-1.322266,-1.326172c0.71875,0.591797 1.293945,1.066895 2.232422,1.244629l0.276367,-1.07666c0.408691,-1.087891 0.783203,-1.252441 0.773926,-2.56543c-0.10791,-2.223145 -2.161133,-5.455078 -2.454102,-8.187012c-0.126953,-1.171387 0.13623,-2.376465 0.270508,-3.570313l0.036133,-2.105957c-0.041992,-0.390137 0.188965,-0.675781 0.264648,-1.205566l-0.024414,-1.443359c0.175781,-0.804199 0.277832,-1.07666 0.194824,-1.858398l-0.628418,-2.175781l-0.037598,-1.574219l-0.225098,-2.081055c-0.168457,-1.561035 0.671387,-2.293457 0.819336,-3.356934c0.075684,-0.533203 -0.598145,-1.918457 -0.887695,-2.154785c-0.417969,-0.225098 -1.311035,-0.013184 -0.993164,-0.698242c0.319824,-0.685059 1.498535,0.521973 1.80127,0.88916c0.378418,-1.347168 0.09082,-1.585449 -0.164551,-2.744629l-0.494141,-3.371582c-0.227051,-0.899414 -0.802246,-1.372559 -0.845703,-1.763184c0.088867,-0.402344 0.478516,-0.4375 0.94043,-1.003906c0.465332,-0.567383 0.654785,-1.241211 0.715332,-1.90332l0.022461,-2.23584c0.145996,-1.063965 1.044434,-2.458496 2.1875,-2.82373c1.154297,-0.234375 2.333008,0.972656 2.981934,0.915039c0.650879,-0.059082 0.96875,-0.743652 1.187988,-1.158203l1.498535,-4.338379l0.26123,-0.023926c0.64502,1.125977 1.322754,1.327148 2.19873,2.168457l0.749023,0.852539c0.144043,0.118164 0.390137,-0.035156 0.635742,-0.188477c0.461914,-0.566895 1.018066,-2.71875 0.688965,-3.346191c-0.185547,-0.508789 -0.760742,-0.98291 -0.961426,-1.621582c-0.041504,-0.390625 0.17627,-0.804199 0.393555,-1.217285c0.306641,-0.816406 0.467773,-1.750488 1.05957,-2.329102c1.17334,-1.287598 3.511719,-1.498047 4.936523,-0.442871c0.721191,0.592285 0.630371,0.994141 0.933105,1.361328c0.446289,0.485352 1.095215,0.427734 1.309082,1.196777c0.02832,0.260254 -0.030273,0.922363 -0.119141,1.324219c0.084961,0.780762 0.240234,1.029297 -0.064453,1.844727c-0.435059,0.827148 -1.157715,1.41748 -1.451172,2.363281c-0.406738,1.087891 0.257324,1.160156 0.094727,2.09375c-0.291504,0.946289 -1.000977,1.666992 -1.29248,2.612793c-0.334961,0.555664 -0.277832,1.075684 -0.883301,1.524414c-0.492188,0.306152 -1.286621,0.246582 -1.805176,0.292969c-0.766113,0.199707 -1.373535,0.648926 -1.994141,0.967285c0.026367,0.260742 0.054688,0.52002 0.211914,0.769043c0.215332,0.769043 0.864746,0.710449 1.498535,0.521973c1.025391,-0.222168 2.383789,-1.001953 3.392578,-0.172852c0.875977,0.841797 1.142578,3.313965 1.890137,4.166016c0.71875,0.592285 1.239258,0.545898 2.046875,0.736328c0.546875,0.213867 0.965332,0.438965 1.396484,0.794434c1.006836,0.828613 0.688965,1.514648 1.146484,2.129883c0.431641,0.354492 0.808105,0.191895 1.25293,0.67627l1.908691,3.112305l1.31543,-1.168945c0.446289,0.48584 0.966797,0.438477 1.025391,-0.223633c-0.041504,-0.389648 -0.253418,-1.157715 -0.427734,-1.538086c0.87793,0.841797 0.948242,1.492676 0.944336,2.675293c0.02832,0.259277 -0.07373,0.531738 0.084961,0.781738c0.055176,0.518066 0.687012,1.513672 1.118164,1.869141c0.562012,0.342285 0.936523,0.177734 1.428711,-0.128906c0.450195,-0.696289 0.713379,-1.90332 1.407715,-2.75293c0.581055,-0.709473 1.734863,-0.943848 2.777832,-2.221191c-0.272461,-0.105957 -1.09375,-0.425781 -1.006836,-0.828613c0.204102,-0.542969 0.983887,-0.613281 1.475586,-0.92041c0.723145,-0.590332 1.275391,-1.560059 1.436523,-2.493164l-1.587891,-0.121094l-0.936523,-0.178711l-1.299805,0.117676l-1.278809,-0.937012l-1.84668,-0.097168c0.317871,-0.685059 0.537109,-1.099609 1.316895,-1.169434c0.389648,-0.035156 0.936523,0.179688 1.182617,0.026367c0.504883,-0.177734 0.448242,-0.698242 0.811523,-0.993164c0.694336,-0.850586 1.717773,-1.07373 1.867676,-2.138184c1.066895,0.166504 1.299805,-0.116211 1.831543,-0.033203c1.095215,0.426758 1.436035,2.367188 1.9375,3.373535c-1.35498,-0.403809 -1.099609,0.755371 -1.131836,1.677734c0.492188,-0.306641 1.071289,-1.015137 1.576172,-1.192383l1.703125,-0.021484c0.389648,-0.035156 0.504883,-0.17627 0.881836,-0.341797c0.894531,-0.210938 1.484863,0.392578 1.958008,1.138184c0.492188,-0.306641 0.463867,-0.567383 0.147461,-1.064453l0.649414,-0.058594l-0.371094,-1.016602c-0.648926,0.057617 -0.794922,-0.060547 -0.983887,0.612793c-0.560059,-0.343262 -0.560059,-0.343262 -1.224121,-0.415527l0.478516,-0.436035l-0.030273,-0.26123c-1.108398,-0.557129 0.163086,-0.933594 0.352051,-1.60791c0.088867,-0.402344 -0.067871,-0.649902 -0.227051,-0.898926l1.632813,-0.672363c0.694336,-0.849609 1.284668,-0.246094 1.576172,-1.192383c1.339844,0.274414 0.898926,-1.394043 1.911133,-1.748047c0.244141,-0.15332 0.646973,-0.057617 0.908203,-0.081543c0.374512,-0.164551 0.749023,-0.329102 1.127441,-0.494629c0.518555,-0.046387 0.779785,-0.068848 1.282715,-0.24707c0.492188,-0.306152 0.942383,-1.003418 1.290527,-1.428223c0.230957,-0.285156 0.70752,-0.721191 0.810059,-0.993652c0.086914,-0.401855 -0.083496,-0.779297 -0.151367,-1.431152c0.533203,0.083008 0.92334,0.04834 1.267578,-0.376465c0.363281,-0.29541 0.306641,-0.815918 -0.242188,-1.029297c-0.128906,0.012207 -0.518555,0.047363 -0.646973,0.058594l1.793457,-1.606445l0.352051,-1.608398l-0.507324,0.176758l0.178223,-0.804199l-1.430664,0.128906c0.230957,-0.283691 0.927246,-1.134277 1.158203,-1.417969c0.609375,-0.44873 1.271484,-0.376465 1.578125,-1.193359c-1.283203,0.24707 -2.86084,1.439453 -3.670898,2.431641l-1.26416,1.689453l0.076172,-0.531738c-1.271484,0.377441 -1.188477,1.158203 -1.680664,1.464844l-0.245605,0.152832c0.389648,-0.034668 -2.221191,0.068359 -1.816406,0.164063c-0.664063,-0.072266 -1.383301,-0.664063 -1.958496,-1.13916c-0.433105,-0.35498 -0.732422,-0.72168 -1.224121,-0.414551l-2.433105,-1.883301c0.230469,-0.283691 0.348145,-0.425781 0.060547,-0.663086c-0.287598,-0.236816 -0.964844,-0.438965 -1.526855,-0.782715c-1.008789,-0.828613 -0.961426,-1.621582 -1.088379,-2.79248c-0.109375,-1.040527 -0.242188,-1.029297 -0.597656,-1.916992c-0.172363,-0.379395 -0.200684,-0.63916 -0.503418,-1.006348c-0.300781,-0.367188 -1.006348,-0.828613 -1.437988,-1.18457c-0.575195,-0.473145 -1.293945,-1.065918 -1.958008,-1.138184c-0.936523,-0.177734 -1.659668,0.412598 -2.469238,0.22168c-0.677246,-0.20166 -1.553711,-1.04248 -2.374512,-1.363281c-0.533691,-0.083496 -1.182617,-0.024902 -1.703125,0.021484c-0.02832,-0.260254 -0.084961,-0.780273 -0.357422,-0.887207c-0.416504,-0.225098 -1.169434,0.10498 -1.687988,0.151367c-0.52002,0.046387 -0.692383,-0.332031 -1.095215,-0.427734c-0.40332,-0.094727 -2.236816,-0.061523 -2.469238,0.22168c-0.246094,0.153809 -0.072266,0.532227 -0.04541,0.79248l0,0zm92.827148,-13.583984c1.063477,1.349609 2.962891,3.149902 4.563477,3.400879c-0.472656,-0.746582 -0.87793,-0.84082 -1.453125,-1.314941c-0.847656,-0.581055 -2.289063,-1.765625 -3.110352,-2.085938l0,0zm-10.399414,-5.241211l-0.329102,-0.627441c0.548828,0.212891 1.097656,0.426758 1.412109,0.924316c0.169922,0.378418 0.200195,0.638672 0.242188,1.029297c0.083008,0.780762 1.449219,2.497559 2.240234,2.557129c0.275391,0.106934 0.260742,-0.022461 0.521484,-0.046387l-0.669922,-2.567383c-0.302734,-0.367188 -0.676758,-0.20166 -1.123047,-0.687012l-2.702148,-3.173828c-0.15918,-0.249023 -0.760742,-0.98291 -0.673828,-1.384277c0.230469,-0.283691 0.881836,-0.342285 1.142578,-0.364746l-2.474609,-2.274414c-0.288086,-0.237305 -0.734375,-0.722656 -1.241211,-0.545898c-0.503906,0.176758 -0.693359,0.850586 -0.913086,1.263672c-0.21582,0.414551 -0.563477,0.839355 -0.522461,1.22998c0.185547,0.509277 0.776367,1.112793 1.076172,1.479492l2.304688,1.89502c0.589844,0.604492 0.888672,0.97168 1.709961,1.29248l0,0zm33.675781,-0.263184c-0.34082,-1.94043 -1.589844,-3.79834 -3.053711,-5.243164l-2.304688,-1.895508c-0.889648,-0.970703 -1.850586,-2.592285 -3.160156,-3.789063c-1.4375,-1.18457 -2.519531,-1.481445 -3.798828,-2.417969l-2.175781,-1.907227l-3.882813,-3.19873c-1.006836,-0.828613 -2.202148,-2.16748 -2.962891,-3.149414c-0.776367,-1.113281 -0.556641,-1.526855 -1.00293,-2.012207c-0.302734,-0.367188 -1.396484,-0.794922 -1.929688,-0.87793l0.204102,-0.543945l-0.964844,-0.438965c0.537109,-1.099121 -0.21582,-0.769043 -0.976563,-1.750977c-0.302734,-0.367188 -0.355469,-0.888672 -0.832031,-1.633789c-0.746094,-0.852539 -1.741211,-1.551758 -2.717773,-2.120117l-4.737305,-2.597168c-1.529297,-0.782227 -3.619141,-1.90918 -5.333008,-2.017578c-1.313477,-0.013672 -2.15332,0.71875 -3.44043,0.964844c-1.15332,0.235352 -3.647461,0.196777 -4.446289,1.318848c-0.80957,0.992188 1.21875,2.78125 1.953125,3.503906l2.054688,2.04834c0.59082,0.604492 0.760742,0.98291 1.362305,1.716797c0.579102,0.474121 1.699219,1.162109 2.161133,1.776855c0.458008,0.615723 -0.306641,0.816406 0.30957,1.680176c0.473633,0.745605 1.62793,1.693359 1.972656,2.451172c0.185547,0.508789 0.268555,1.289551 0.700195,1.645508c0.416016,0.225098 0.908203,-0.08252 1.297852,-0.117676c0.635742,-0.187988 2.501953,-1.143555 3.061523,-0.799316c0.560547,0.343262 2.474609,2.273438 2.921875,2.759766c0.287109,0.236328 0.874023,0.839844 0.787109,1.243164c0.071289,0.649902 -1.975586,-0.086426 -1.487305,0.789551c0.158203,0.249023 1.411133,0.924316 1.842773,1.280273l1.59668,1.433105l1.854492,1.409668c0.431641,0.355957 0.904297,1.101074 1.324219,1.32666c0.821289,0.320313 1.241211,-0.636719 1.949219,-0.175293c1.380859,0.664063 2.37207,2.546875 3.810547,3.730957c0.976563,0.568848 1.22168,0.415527 2.042969,0.736328c0.692383,0.332031 1.139648,0.817383 1.842773,1.279785c1.109375,0.557129 1.200195,0.155273 2.494141,1.22168c1.725586,1.420898 3.194336,2.866211 4.673828,4.441406c0.589844,0.603516 2.042969,1.918457 2.720703,2.120117c0.128906,-0.01123 0.256836,-0.022461 0.389648,-0.034668l1.487305,-0.790039c0,0 0.132813,-0.012695 0.117188,-0.14209c0.086914,-0.401855 0.030273,-0.922363 0.117188,-1.324707c0.09082,-0.401855 0.336914,-0.555176 0.40918,-1.087891c0.086914,-0.400879 0.003906,-1.182617 0.37793,-1.347168c0.378906,-0.165527 1.097656,0.426758 1.370117,0.533691l0,0zm-31.700195,-33.80957c-0.056641,-0.520508 -0.200195,-0.638672 -0.385742,-1.147461c-0.776367,-1.112793 -1.638672,-1.823242 -2.865234,-2.239746c-0.400391,-0.094238 -1.611328,-0.380371 -1.831055,0.033203c-0.333008,0.555176 1.078125,1.480469 1.494141,1.705566c0.431641,0.35498 0.980469,0.568848 1.412109,0.924805c0.835938,0.450195 1.237305,0.54541 2.175781,0.723633l0,0zm-50.879395,-10.936523c1.718262,0.10791 2.365234,0.050293 4.007324,0.69043c1.498535,0.522461 2.376465,1.363281 4.094727,1.472168l-1.92627,-2.060547l1.097656,-0.754883c-0.575195,-0.474121 -0.83252,-0.451172 -1.396484,-0.794434c-0.287598,-0.236816 -0.313965,-0.497559 -0.601563,-0.734375c-0.26123,0.023926 -0.912109,0.081543 -1.169434,0.10498c-0.768066,0.199707 -1.400391,0.38916 -2.281738,0.730469c-0.768555,0.199707 -1.790039,0.422852 -1.824219,1.346191l0,0zm7.875,-3.59668c-0.189453,0.67334 -0.825195,0.861816 -1.434082,1.310059c0.143555,0.118164 0.158691,0.249023 0.302734,0.367188c0.419922,0.225098 2.554199,0.559082 3.087891,0.643066c1.312988,0.013672 1.358398,-0.77832 2.902344,-1.048828l1.933594,-0.304688c1.816406,-0.163574 4.298828,-0.254395 5.918457,-1.056641c-0.616699,-0.86377 -1.006348,-0.830078 -1.956543,-1.138184c-1.486816,-0.392578 -3.072754,-0.512695 -4.589844,0.01709c-1.400391,0.388672 -1.34375,0.90918 -3.163574,1.072754l-3.000977,0.138184l0,0zm-27.586914,222.661133c-30.333984,-6.476563 6.17041,1.285156 0,0l0,0z" fill="none"/>
   </g>
  </g>
 </g>
</svg>